<mxfile host="app.diagrams.net" modified="2023-08-25T16:40:46.195Z" agent="Mozilla/5.0 (X11; Linux x86_64; rv:109.0) Gecko/20100101 Firefox/112.0" etag="dz5NjJOsKZsYE2G-3jhj" version="21.6.9" type="github">
  <diagram id="R2lEEEUBdFMjLlhIrx00" name="Page-1">
    <mxGraphModel dx="1434" dy="678" grid="1" gridSize="10" guides="1" tooltips="1" connect="1" arrows="1" fold="1" page="1" pageScale="1" pageWidth="850" pageHeight="1100" math="0" shadow="0" extFonts="Permanent Marker^https://fonts.googleapis.com/css?family=Permanent+Marker">
      <root>
        <mxCell id="0" />
        <mxCell id="1" parent="0" />
        <mxCell id="VrRMYeBTA5_ZUBWhvpAO-3" style="edgeStyle=orthogonalEdgeStyle;rounded=0;orthogonalLoop=1;jettySize=auto;html=1;" edge="1" parent="1" source="VrRMYeBTA5_ZUBWhvpAO-1" target="VrRMYeBTA5_ZUBWhvpAO-4">
          <mxGeometry relative="1" as="geometry">
            <mxPoint x="220" y="100" as="targetPoint" />
          </mxGeometry>
        </mxCell>
        <mxCell id="VrRMYeBTA5_ZUBWhvpAO-1" value="Vendedor" style="swimlane;whiteSpace=wrap;html=1;" vertex="1" parent="1">
          <mxGeometry x="10" y="40" width="130" height="120" as="geometry" />
        </mxCell>
        <mxCell id="VrRMYeBTA5_ZUBWhvpAO-2" value="&lt;div&gt;Código&lt;/div&gt;&lt;div&gt;Nome&lt;/div&gt;&lt;div&gt;Endereço&lt;/div&gt;&lt;div&gt;Comissão&lt;br&gt;&lt;/div&gt;" style="text;html=1;align=center;verticalAlign=middle;resizable=0;points=[];autosize=1;strokeColor=none;fillColor=none;" vertex="1" parent="VrRMYeBTA5_ZUBWhvpAO-1">
          <mxGeometry x="30" y="40" width="80" height="70" as="geometry" />
        </mxCell>
        <mxCell id="VrRMYeBTA5_ZUBWhvpAO-5" style="edgeStyle=orthogonalEdgeStyle;rounded=0;orthogonalLoop=1;jettySize=auto;html=1;" edge="1" parent="1" source="VrRMYeBTA5_ZUBWhvpAO-4" target="VrRMYeBTA5_ZUBWhvpAO-6">
          <mxGeometry relative="1" as="geometry">
            <mxPoint x="310" y="100" as="targetPoint" />
          </mxGeometry>
        </mxCell>
        <mxCell id="VrRMYeBTA5_ZUBWhvpAO-10" style="edgeStyle=orthogonalEdgeStyle;rounded=0;orthogonalLoop=1;jettySize=auto;html=1;" edge="1" parent="1" source="VrRMYeBTA5_ZUBWhvpAO-4" target="VrRMYeBTA5_ZUBWhvpAO-11">
          <mxGeometry relative="1" as="geometry">
            <mxPoint x="220" y="250" as="targetPoint" />
          </mxGeometry>
        </mxCell>
        <mxCell id="VrRMYeBTA5_ZUBWhvpAO-4" value="TER" style="rhombus;whiteSpace=wrap;html=1;" vertex="1" parent="1">
          <mxGeometry x="180" y="60" width="80" height="80" as="geometry" />
        </mxCell>
        <mxCell id="VrRMYeBTA5_ZUBWhvpAO-6" value="Cliente" style="swimlane;whiteSpace=wrap;html=1;" vertex="1" parent="1">
          <mxGeometry x="320" y="45" width="130" height="110" as="geometry" />
        </mxCell>
        <mxCell id="VrRMYeBTA5_ZUBWhvpAO-7" value="&lt;div&gt;Código&lt;/div&gt;&lt;div&gt;Nome&lt;/div&gt;&lt;div&gt;Endreço&lt;/div&gt;&lt;div&gt;Faturamento&lt;/div&gt;&lt;div&gt;Limite&lt;br&gt;&lt;/div&gt;" style="text;html=1;align=center;verticalAlign=middle;resizable=0;points=[];autosize=1;strokeColor=none;fillColor=none;" vertex="1" parent="VrRMYeBTA5_ZUBWhvpAO-6">
          <mxGeometry x="20" y="20" width="90" height="90" as="geometry" />
        </mxCell>
        <mxCell id="VrRMYeBTA5_ZUBWhvpAO-13" style="edgeStyle=orthogonalEdgeStyle;rounded=0;orthogonalLoop=1;jettySize=auto;html=1;" edge="1" parent="1" source="VrRMYeBTA5_ZUBWhvpAO-11" target="VrRMYeBTA5_ZUBWhvpAO-14">
          <mxGeometry relative="1" as="geometry">
            <mxPoint x="400" y="315" as="targetPoint" />
          </mxGeometry>
        </mxCell>
        <mxCell id="VrRMYeBTA5_ZUBWhvpAO-11" value="Peças" style="swimlane;whiteSpace=wrap;html=1;" vertex="1" parent="1">
          <mxGeometry x="150" y="270" width="140" height="90" as="geometry" />
        </mxCell>
        <mxCell id="VrRMYeBTA5_ZUBWhvpAO-12" value="&lt;div&gt;Código&lt;/div&gt;&lt;div&gt;Descrição&lt;/div&gt;&lt;div&gt;Preço&lt;br&gt;&lt;/div&gt;" style="text;html=1;align=center;verticalAlign=middle;resizable=0;points=[];autosize=1;strokeColor=none;fillColor=none;" vertex="1" parent="VrRMYeBTA5_ZUBWhvpAO-11">
          <mxGeometry x="30" y="30" width="80" height="60" as="geometry" />
        </mxCell>
        <mxCell id="VrRMYeBTA5_ZUBWhvpAO-15" style="edgeStyle=orthogonalEdgeStyle;rounded=0;orthogonalLoop=1;jettySize=auto;html=1;" edge="1" parent="1" source="VrRMYeBTA5_ZUBWhvpAO-14" target="VrRMYeBTA5_ZUBWhvpAO-16">
          <mxGeometry relative="1" as="geometry">
            <mxPoint x="520" y="315" as="targetPoint" />
          </mxGeometry>
        </mxCell>
        <mxCell id="VrRMYeBTA5_ZUBWhvpAO-14" value="TER" style="rhombus;whiteSpace=wrap;html=1;" vertex="1" parent="1">
          <mxGeometry x="360" y="275" width="80" height="80" as="geometry" />
        </mxCell>
        <mxCell id="VrRMYeBTA5_ZUBWhvpAO-16" value="Armazém" style="swimlane;whiteSpace=wrap;html=1;" vertex="1" parent="1">
          <mxGeometry x="510" y="270" width="110" height="90" as="geometry" />
        </mxCell>
        <mxCell id="VrRMYeBTA5_ZUBWhvpAO-17" value="&lt;div&gt;Código&lt;/div&gt;&lt;div&gt;Endereço&lt;br&gt;&lt;/div&gt;" style="text;html=1;align=center;verticalAlign=middle;resizable=0;points=[];autosize=1;strokeColor=none;fillColor=none;" vertex="1" parent="VrRMYeBTA5_ZUBWhvpAO-16">
          <mxGeometry x="20" y="30" width="70" height="40" as="geometry" />
        </mxCell>
        <mxCell id="VrRMYeBTA5_ZUBWhvpAO-18" value="1" style="text;html=1;align=center;verticalAlign=middle;resizable=0;points=[];autosize=1;strokeColor=none;fillColor=none;" vertex="1" parent="1">
          <mxGeometry x="145" y="58" width="30" height="30" as="geometry" />
        </mxCell>
        <mxCell id="VrRMYeBTA5_ZUBWhvpAO-19" value="N" style="text;html=1;align=center;verticalAlign=middle;resizable=0;points=[];autosize=1;strokeColor=none;fillColor=none;" vertex="1" parent="1">
          <mxGeometry x="285" y="58" width="30" height="30" as="geometry" />
        </mxCell>
        <mxCell id="VrRMYeBTA5_ZUBWhvpAO-20" value="N" style="text;html=1;align=center;verticalAlign=middle;resizable=0;points=[];autosize=1;strokeColor=none;fillColor=none;" vertex="1" parent="1">
          <mxGeometry x="225" y="238" width="30" height="30" as="geometry" />
        </mxCell>
        <mxCell id="VrRMYeBTA5_ZUBWhvpAO-21" value="N" style="text;html=1;align=center;verticalAlign=middle;resizable=0;points=[];autosize=1;strokeColor=none;fillColor=none;" vertex="1" parent="1">
          <mxGeometry x="290" y="280" width="30" height="30" as="geometry" />
        </mxCell>
        <mxCell id="VrRMYeBTA5_ZUBWhvpAO-23" value="1" style="text;html=1;align=center;verticalAlign=middle;resizable=0;points=[];autosize=1;strokeColor=none;fillColor=none;" vertex="1" parent="1">
          <mxGeometry x="475" y="278" width="30" height="30" as="geometry" />
        </mxCell>
      </root>
    </mxGraphModel>
  </diagram>
</mxfile>
